# xmcd CD database file
#
# Track frame offsets:
#	150
#	110399
#	118455
#	203600
#	206028
#	224332
#	253340
#
# Disc length: 3418 seconds
#
# Revision: 0
# Processed by: cddbd v1.5.2PL0 Copyright (c) Steve Scherf et al.
# Submitted via: CDex 1.70beta2
#
DISCID=700d5807
DTITLE=CTI All-Stars - Live In Munich [CD 2)
DYEAR=1972
DGENRE=Jazz
TTITLE0=Sound Down
TTITLE1=Talk
TTITLE2=Red Clay
TTITLE3=Talk
TTITLE4=Baby I'm For Real
TTITLE5=In The Evening
TTITLE6=Talk
EXTD=YEAR: 1972
EXTT0=
EXTT1=
EXTT2=
EXTT3=
EXTT4=
EXTT5=
EXTT6=
PLAYORDER=
